# xmcd
#
# Track frame offsets:
#	150
#	25494
#	49799
#	75108
#	100448
#	125761
#	150799
#	175850
#	201171
#	223350
#	248056
#	273338
#	297763
#	323040
#
# Disc length: 4644 seconds
#
# Revision: 1
# Processed by: cddbd v1.5.2PL0 Copyright (c) Steve Scherf et al.
# Submitted via: EasyCDDAExtractor 16.0.6.1
#
DISCID=c112220e
DTITLE=CARNAVAL DE SÃO PAULO - SAMBAS DE ENREDO 2018 GRUPO ESPECIAL
DYEAR=1900
DGENRE=
TTITLE0=G.R.E.S. ACADÊMICOS DO TATUAPÉ - MARANHÃO. OS TAMBORES VÃO ECOAR NA TE
TTITLE0=RRA DA ENCANTARIA
TTITLE1=G.R.C.E.S. DRAGÕES DA REAL - MINHA MÚSICA, MINHA RAIZ. ABRAM A PORTEIR
TTITLE1=A PRA ESSA GENTE CAIPIRA E FELIZ
TTITLE2=G.R.C.S.E.S. VAI-VAI - SAMBAR COM FÉ EU VOU
TTITLE3=G.R.C.S.E.S. IMPÉRIO DE CASA VERDE - O POVO, A NOBREZA REAL
TTITLE4=SOCIEDADE ROSAS DE OURO - PELAS ESTRADAS DA VIDA, SONHOS E AVENTURAS D
TTITLE4=E UM HERÓIS BRASILEIRO
TTITLE5=G.R.C.E.S. MOCIDADE ALEGRE - A VOZ MARROM QUE NÃO DEIXA O SAMBA MORRER
TTITLE6=G.R.C.S.E.S. UNIDOS DE VILA MARIA - APROVEITAM-SE DA MINHA NOBREZA, VO
TTITLE6=CÊ NÃO SOUBE, NÃO TE CONTARAM? SUSPEITEI DESDE O PRINCÍPIO! NÃO CONTAV
TTITLE6=AM COM MINHA ASTÚCIA! ARRIBA BOLAÑOS, ARRIBA VILA, ARRIBA MÉXICO!
TTITLE7=G.R.C.S.E.S. ACADÊMICOS DO TUCURUVI - UMA NOITE NO MUSEU
TTITLE8=GRÊMIO GAVIÕES DA FIEL TORCIDA - GUARUS - NA AURORA DA CRIAÇÃO, A PROF
TTITLE8=ECIA TUPI... PROSPERIDADE E PAZ AOS MENSAGEIROS DE RUDÁ
TTITLE9=G.R.C.E.S. MANCHA VERDE - A AMIZADE. A MANCHA AGRADECE DO FUNDO DO NOS
TTITLE9=SO QUINTAL
TTITLE10=G.R.C.S.E.S. UNIDOS DO PERUCHE - PERUCHE CELEBRA MARTINHO 80 ANOS DO 
TTITLE10=DIKAMBA DA VILA
TTITLE11=G.R.E.S. TOM MAIOR - O BRASIL DE DUAS IMPERATRIZES: DE VIENA PARA O N
TTITLE11=OVO MUNDO, CAROLINA JOSEFA LEOPOLDINA - DE RAMOS, IMPERATRIZ LEOPOLDIN
TTITLE11=ENSE
TTITLE12=G.R.C.E.S. X-9 PAULISTANA - A VOZ DO SAMBA É A VOZ DE DEUS. DEPOIS DA
TTITLE12=TEMPESTADE, VEM A BONANÇA!
TTITLE13=LUZ, CÂMERA E TERROR! UMA PRODUÇÃO INDEPENDENTE
EXTD=
EXTT0=
EXTT1=
EXTT2=
EXTT3=
EXTT4=
EXTT5=
EXTT6=
EXTT7=
EXTT8=
EXTT9=
EXTT10=
EXTT11=
EXTT12=
EXTT13=
PLAYORDER=
